<svg width="265" height="116" viewBox="0 0 265 116" fill="none" xmlns="http://www.w3.org/2000/svg">
<path d="M40.26 56.06C45.0267 57.7467 47.41 61.6333 47.41 67.72V80.48C47.41 90.16 42.8633 95 33.77 95H5.5V23.83H32.89C41.9833 23.83 46.53 28.67 46.53 38.35V44.84C46.53 50.7067 44.44 54.4467 40.26 56.06ZM29.04 34.28H20.9V53.31H29.04C29.6267 53.31 30.1033 53.09 30.47 52.65C30.91 52.21 31.13 51.6967 31.13 51.11V36.48C31.13 35.8933 30.91 35.38 30.47 34.94C30.1033 34.5 29.6267 34.28 29.04 34.28ZM32.01 82.24V66.29C32.01 65.7033 31.79 65.19 31.35 64.75C30.9833 64.31 30.5067 64.09 29.92 64.09H20.9V84.44H29.92C30.5067 84.44 30.9833 84.22 31.35 83.78C31.79 83.34 32.01 82.8267 32.01 82.24ZM84.6519 41.32H97.0819V95H84.6519V91.04C82.3785 94.4133 78.6019 96.1 73.3219 96.1H71.0119C61.9185 96.1 57.3719 91.26 57.3719 81.58V54.74C57.3719 45.06 61.9185 40.22 71.0119 40.22H73.3219C78.6019 40.22 82.3785 41.9067 84.6519 45.28V41.32ZM82.3419 83.34V52.98C82.3419 52.3933 82.1219 51.88 81.6819 51.44C81.3152 51 80.8385 50.78 80.2519 50.78H74.2019C73.6152 50.78 73.1019 51 72.6619 51.44C72.2952 51.88 72.1119 52.3933 72.1119 52.98V83.34C72.1119 83.9267 72.2952 84.44 72.6619 84.88C73.1019 85.32 73.6152 85.54 74.2019 85.54H80.2519C80.8385 85.54 81.3152 85.32 81.6819 84.88C82.1219 84.44 82.3419 83.9267 82.3419 83.34ZM129.988 40.22H132.848V54.52H125.588C123.095 54.52 121.848 55.8033 121.848 58.37V95H107.108V41.32H120.528V46.49C122.655 42.31 125.808 40.22 129.988 40.22ZM163.202 40.22H165.512C174.606 40.22 179.152 45.06 179.152 54.74V81.58C179.152 91.26 174.606 96.1 165.512 96.1H163.202C157.922 96.1 154.146 94.4133 151.872 91.04V95H139.442V23.83H154.182V42.86C156.529 41.1 159.536 40.22 163.202 40.22ZM154.182 52.98V83.34C154.182 83.9267 154.366 84.44 154.732 84.88C155.172 85.32 155.686 85.54 156.272 85.54H162.322C162.909 85.54 163.386 85.32 163.752 84.88C164.192 84.44 164.412 83.9267 164.412 83.34V52.98C164.412 52.3933 164.192 51.88 163.752 51.44C163.386 51 162.909 50.78 162.322 50.78H156.272C155.686 50.78 155.172 51 154.732 51.44C154.366 51.88 154.182 52.3933 154.182 52.98ZM215.249 40.22C224.342 40.22 228.889 45.06 228.889 54.74V72.12H203.919V83.34C203.919 83.9267 204.102 84.44 204.469 84.88C204.909 85.32 205.422 85.54 206.009 85.54H212.059C212.645 85.54 213.122 85.32 213.489 84.88C213.929 84.44 214.149 83.9267 214.149 83.34V77.4H228.889V81.58C228.889 91.26 224.342 96.1 215.249 96.1H202.819C193.725 96.1 189.179 91.26 189.179 81.58V54.74C189.179 45.06 193.725 40.22 202.819 40.22H215.249ZM203.919 62.44H214.149V52.54C214.149 51.9533 213.929 51.44 213.489 51C213.122 50.56 212.645 50.34 212.059 50.34H206.009C205.422 50.34 204.909 50.56 204.469 51C204.102 51.44 203.919 51.9533 203.919 52.54V62.44ZM259.861 40.22H262.721V54.52H255.461C252.968 54.52 251.721 55.8033 251.721 58.37V95H236.981V41.32H250.401V46.49C252.528 42.31 255.681 40.22 259.861 40.22Z" fill="url(#paint0_linear_205_19)"/>
<rect x="199" y="89" width="66" height="25" rx="10" fill="white"/>
<path d="M218.248 93.472C220.232 93.472 221.224 94.528 221.224 96.64V99.736C221.224 101.848 220.232 102.904 218.248 102.904H215.536V109H212.176V93.472H218.248ZM217.864 100.12V96.256C217.864 96.128 217.816 96.016 217.72 95.92C217.64 95.824 217.536 95.776 217.408 95.776H215.536V100.6H217.408C217.536 100.6 217.64 100.552 217.72 100.456C217.816 100.36 217.864 100.248 217.864 100.12ZM226.271 106.168H229.943V109H222.911V93.472H226.271V106.168ZM237.08 93.472H240.44V106.072C240.44 108.184 239.448 109.24 237.464 109.24H234.488C232.504 109.24 231.512 108.184 231.512 106.072V93.472H234.872V106.36C234.872 106.488 234.912 106.6 234.992 106.696C235.088 106.792 235.2 106.84 235.328 106.84H236.624C236.752 106.84 236.856 106.792 236.936 106.696C237.032 106.6 237.08 106.488 237.08 106.36V93.472ZM251.355 97.552H248.163V96.328C248.163 96.2 248.115 96.088 248.019 95.992C247.939 95.896 247.835 95.848 247.707 95.848H246.387C246.259 95.848 246.147 95.896 246.051 95.992C245.971 96.088 245.931 96.2 245.931 96.328V99.088C245.931 99.216 245.971 99.328 246.051 99.424C246.147 99.52 246.259 99.568 246.387 99.568H248.547C250.531 99.6 251.523 100.656 251.523 102.736V106.072C251.523 108.184 250.531 109.24 248.547 109.24H245.715C243.731 109.24 242.739 108.184 242.739 106.072V104.464H245.931V106.192C245.931 106.32 245.971 106.432 246.051 106.528C246.147 106.624 246.259 106.672 246.387 106.672H247.875C248.003 106.672 248.107 106.624 248.187 106.528C248.283 106.432 248.331 106.32 248.331 106.192V103.144C248.331 103.016 248.283 102.904 248.187 102.808C248.107 102.712 248.003 102.664 247.875 102.664H245.715C243.731 102.664 242.739 101.608 242.739 99.496V96.4C242.739 94.288 243.731 93.232 245.715 93.232H248.379C250.363 93.232 251.355 94.288 251.355 96.4V97.552Z" fill="black"/>
<defs>
<linearGradient id="paint0_linear_205_19" x1="132.5" y1="0" x2="132.5" y2="116" gradientUnits="userSpaceOnUse">
<stop stop-color="#FBA931"/>
<stop offset="1" stop-color="#FBC231" stop-opacity="0.77"/>
</linearGradient>
</defs>
</svg>
